<svg id="App_Store__iOS_" data-name="App_Store_(iOS)" xmlns="http://www.w3.org/2000/svg" xmlns:xlink="http://www.w3.org/1999/xlink" width="48" height="48" viewBox="0 0 48 48">
  <defs>
    <linearGradient id="linear-gradient" x1="0.5" y1="0.998" x2="0.5" y2="-0.002" gradientUnits="objectBoundingBox">
      <stop offset="0" stop-color="#18bffb"/>
      <stop offset="1" stop-color="#2072f3"/>
    </linearGradient>
  </defs>
  <path id="Path_12879" data-name="Path 12879" d="M38.3,0H9.7A9.692,9.692,0,0,0,0,9.7V38.308A9.69,9.69,0,0,0,9.7,48H38.308A9.7,9.7,0,0,0,48,38.3V9.7A9.7,9.7,0,0,0,38.3,0Z" fill="url(#linear-gradient)"/>
  <path id="Path_12880" data-name="Path 12880" d="M124,140.221l.972-1.68a2.188,2.188,0,1,1,3.792,2.184L119.4,156.937h6.774a3,3,0,0,1,2.472,4.368H108.784a2.184,2.184,0,0,1,0-4.368h5.568l7.128-12.353-2.226-3.864a2.188,2.188,0,1,1,3.792-2.184l.954,1.686Zm-8.424,23.333-2.1,3.642a2.188,2.188,0,1,1-3.792-2.184l1.56-2.7a3.739,3.739,0,0,1,4.332,1.242Zm18.083-6.606h5.682a2.184,2.184,0,1,1,0,4.368h-3.156l2.13,3.7a2.188,2.188,0,0,1-3.792,2.184q-5.382-9.333-8.07-13.979a6.042,6.042,0,0,1,.768-7.4q2.151,3.69,6.438,11.129Z" transform="translate(-100.204 -129.194)" fill="#fff"/>
</svg>
