<svg xmlns="http://www.w3.org/2000/svg" width="144.041" height="144.001" viewBox="0 0 144.041 144.001">
  <g id="Group_1" data-name="Group 1" transform="translate(-770.385 -279.385)">
    <rect id="Rectangle_4397" data-name="Rectangle 4397" width="144" height="144" transform="translate(770.385 279.385)" fill="none"/>
    <path id="Path_21118" data-name="Path 21118" d="M197.153,225.025a8.385,8.385,0,0,0-11.811.994l-19.189,19.723h.02a8.579,8.579,0,0,0-8.234-6.173H126.158a33.556,33.556,0,0,0-13.474-2.8c-13.276,0-24.756,6.436-30.238,18.631l25.368,25.239.047-.037,4.368-4.214a11.215,11.215,0,0,1,7.791-3.147h37.39A22.349,22.349,0,0,0,173,266.9l25.151-30.069a8.381,8.381,0,0,0-.994-11.81Zm0,0" transform="translate(711.301 119.255)" fill="#fed2a4"/>
    <path id="Path_21120" data-name="Path 21120" d="M55.333,368.725,41.746,382.111l-31.5-31.741,13.346-13.386a5.613,5.613,0,0,1,7.936,0l23.8,23.8a5.613,5.613,0,0,1,0,7.936Zm0,0" transform="translate(763.257 38.469)" fill="#ed6f82"/>
    <path id="Path_21121" data-name="Path 21121" d="M223.515,334.985a2.807,2.807,0,1,0-3.969,0,2.807,2.807,0,0,0,3.969,0Zm0,0" transform="translate(613.275 42.178)" fill="#1f343e"/>
    <path id="Path_21123" data-name="Path 21123" d="M32.811,295.587a2.8,2.8,0,0,0,3.959.023l13.6-13.4a8.479,8.479,0,0,0,2-8.706l2.925-2.822a8.365,8.365,0,0,1,5.841-2.36H98.424a25.113,25.113,0,0,0,17.609-7.155c.2-.19-1.481,1.785,25.44-30.4A11.22,11.22,0,1,0,124.4,216.206l-16.552,17.016a11.273,11.273,0,0,0-8.721-4.177H67.846a36.184,36.184,0,0,0-14.046-2.8c-13.508,0-25.3,6.24-31.632,17.938a8.379,8.379,0,0,0-7.5,2.325L1.32,259.889a2.806,2.806,0,0,0,0,3.957ZM53.8,231.851a30.617,30.617,0,0,1,12.349,2.571,2.8,2.8,0,0,0,1.125.236H99.126a5.611,5.611,0,0,1,0,11.222H76.239a2.805,2.805,0,1,0,0,5.61H99.126a11.205,11.205,0,0,0,11.121-12.69c16.012-16.461,18.27-18.774,18.367-18.89a5.612,5.612,0,0,1,8.567,7.25l-25.16,30.082a19.531,19.531,0,0,1-13.6,5.469H61.133a13.946,13.946,0,0,0-9.737,3.933l-2.384,2.3L27.036,246.969c5.136-9.637,14.774-15.118,26.761-15.118ZM18.634,250.469a2.8,2.8,0,0,1,3.473-.4c.486.3-.909-.973,24.3,24.2a2.811,2.811,0,0,1,.015,3.954l-11.6,11.423L7.262,261.875Zm0,0" transform="translate(770.268 126.968)" fill="#1f343e"/>
    <path id="Path_21124" data-name="Path 21124" d="M271.328,42.883v3.2a8.415,8.415,0,0,0,2.755,16.35,2.855,2.855,0,0,1,2.838,2.482,2.809,2.809,0,0,1-2.788,3.13,5.039,5.039,0,0,1-3.6-2.072,2.859,2.859,0,0,0-3.61-.666,2.808,2.808,0,0,0-.727,4.227,11.636,11.636,0,0,0,5.132,3.654v3.187a2.864,2.864,0,0,0,2.388,2.863,2.807,2.807,0,0,0,3.222-2.776V73.173a8.415,8.415,0,0,0-2.755-16.35,2.855,2.855,0,0,1-2.838-2.482,2.809,2.809,0,0,1,2.788-3.13,4.448,4.448,0,0,1,2.967,1.4,2.879,2.879,0,0,0,3.672.315,2.807,2.807,0,0,0,.3-4.284,10.839,10.839,0,0,0-4.132-2.583V42.8a2.806,2.806,0,0,0-3.222-2.776,2.862,2.862,0,0,0-2.388,2.862Zm0,0" transform="translate(579.596 250.955)"/>
    <path id="Path_244" data-name="Path 244" d="M76.441,11.52a12.4,12.4,0,0,0-1.479.089,12.992,12.992,0,0,0-3.546.956C63.459,15.947,57.6,27.156,57.6,40.426S63.459,64.9,71.417,68.287a12.992,12.992,0,0,0,3.544.956,12.407,12.407,0,0,0,1.481.089c10.389,0,18.841-12.967,18.841-28.906S86.83,11.52,76.441,11.52" transform="translate(782.958 270.761)" fill="#f8cc5d"/>
    <path id="Path_251" data-name="Path 251" d="M31.418,0H21.364C15.56,0,10.139,3.336,6.1,9.394,2.167,15.3,0,23.116,0,31.418S2.167,47.542,6.1,53.443c4.039,6.058,9.459,9.394,15.264,9.394H31.418c5.8,0,11.225-3.336,15.264-9.394,3.934-5.9,6.1-13.723,6.1-22.024S50.615,15.3,46.682,9.4C42.644,3.336,37.223,0,31.418,0M21.364,2.513a12.421,12.421,0,0,1,1.481.089A22.022,22.022,0,0,0,17.5,7.54H10.753c3.024-3.17,6.679-5.027,10.611-5.027M8.68,10.054h7.055a34.608,34.608,0,0,0-3.518,7.54h-7.4a30.665,30.665,0,0,1,3.867-7.54M4.017,20.108h7.456a44.623,44.623,0,0,0-1.4,10.054H2.532A41.956,41.956,0,0,1,4.017,20.108M2.532,32.675h7.542a44.623,44.623,0,0,0,1.4,10.054H4.017A41.956,41.956,0,0,1,2.532,32.675M8.68,52.783a30.665,30.665,0,0,1-3.867-7.54h7.4a34.608,34.608,0,0,0,3.518,7.54Zm12.684,7.54c-3.932,0-7.587-1.857-10.611-5.027H17.5a22.021,22.021,0,0,0,5.344,4.938,12.419,12.419,0,0,1-1.481.089m10.054,0a12.419,12.419,0,0,1-1.481-.089,13.005,13.005,0,0,1-3.545-.956C18.43,55.9,12.567,44.688,12.567,31.418S18.43,6.94,26.391,3.559A13,13,0,0,1,29.937,2.6a12.421,12.421,0,0,1,1.481-.089c10.394,0,18.851,12.967,18.851,28.9s-8.457,28.9-18.851,28.9" transform="translate(827.969 279.769)" fill="#1f343e"/>
    <path id="Union_1" data-name="Union 1" d="M8.214,52.788l-2-2.517H6.188a31.444,31.444,0,0,1-3.869-7.537c-.046-.131-.791-2.52-.792-2.523h0A42.888,42.888,0,0,1,0,30.059l.062-2.413H.043A42.013,42.013,0,0,1,1.527,17.6l.8-2.519h0c.929-2.665,3.7-8.318,5.951-10.055H8.267C11.291,1.856,14.943,0,18.873,0a12.333,12.333,0,0,1,1.48.089,22.009,22.009,0,0,0-5.341,4.935h0l-1.7,2.519A34.875,34.875,0,0,0,9.753,14.99h.015l-.411,1.305-.374,1.3a44.57,44.57,0,0,0-1.4,10.049H7.565A70.211,70.211,0,0,0,8.973,40.188h0l.788,2.546a34.469,34.469,0,0,0,3.473,7.537h0l1.778,2.517a22.013,22.013,0,0,0,5.341,4.936,12.337,12.337,0,0,1-1.479.089A14.821,14.821,0,0,1,8.214,52.788Z" transform="translate(830.456 282.281)" fill="#f8cc5d"/>
  </g>
</svg>
