<svg xmlns="http://www.w3.org/2000/svg" width="144" height="144" viewBox="0 0 144 144">
  <g id="Group_3" data-name="Group 3" transform="translate(-925 -280)">
    <path id="Path_21110" data-name="Path 21110" d="M424.939,162.137v24.1l15.6-10.84Z" transform="translate(618.395 164.111)" fill="#bdc1c3"/>
    <g id="Group_2" data-name="Group 2">
      <rect id="Rectangle_4400" data-name="Rectangle 4400" width="144" height="144" transform="translate(925 280)" fill="none"/>
      <path id="Path_21103" data-name="Path 21103" d="M100.313,320.142a5.491,5.491,0,0,0-7.114,0L36.565,368.3a5.467,5.467,0,0,0,3.747,1.485H153.2a5.468,5.468,0,0,0,3.748-1.486Z" transform="translate(900.244 50.379)" fill="#f8f4f9"/>
      <path id="Path_21104" data-name="Path 21104" d="M291.447,246.753l50.49,42.911a5.476,5.476,0,0,0,1.747-4.011v-75.19Z" transform="translate(715.254 129.011)" fill="#f8f4f9"/>
      <path id="Path_21105" data-name="Path 21105" d="M31.946,289.664l50.49-42.911L30.2,210.463v75.191a5.474,5.474,0,0,0,1.746,4.01Z" transform="translate(904.863 129.011)" fill="#f8f4f9"/>
      <path id="Path_21108" data-name="Path 21108" d="M45.8,162.137v24.1L30.2,175.4Z" transform="translate(904.863 164.111)" fill="#bdc1c3"/>
      <path id="Path_21112" data-name="Path 21112" d="M123.673,99.5l6.165-5.243a5.49,5.49,0,0,1,7.113,0l6.165,5.243,36.612-25.45V7.515H87.061V74.049Z" transform="translate(863.606 276.282)" fill="#4eb3e3"/>
      <g id="Group_12236" data-name="Group 12236" transform="translate(933 281.777)">
        <path id="Path_21116" data-name="Path 21116" d="M148.622,88.9a2.061,2.061,0,0,0,2.061-2.061V57.731a2.085,2.085,0,0,0-.726-1.571L135.086,43.522V2.061A2.061,2.061,0,0,0,133.025,0H40.343a2.061,2.061,0,0,0-2.061,2.061V20.68a2.062,2.062,0,0,0,4.123,0V4.123h88.559V67.489L96.534,91.408l-4.958-4.213a7.526,7.526,0,0,0-9.784,0l-4.958,4.213L42.4,67.489V28.925a2.062,2.062,0,0,0-4.123,0v14.6L23.41,56.161a2.085,2.085,0,0,0-.726,1.571v75.159a7.579,7.579,0,0,0,2.4,5.514c1.525,1.426,0,0,0,0a7.527,7.527,0,0,0,5.155,2.039H143.13a7.527,7.527,0,0,0,5.155-2.039h0a7.579,7.579,0,0,0,2.4-5.514V95.083a2.062,2.062,0,0,0-4.123,0v37.808a3.414,3.414,0,0,1-.13.925L99.783,94.17l46.778-32.5V86.838A2.061,2.061,0,0,0,148.622,88.9ZM38.282,48.932V64.625l-10.16-7.058Zm-7.928,87.39,20.552-17.466a2.061,2.061,0,1,0-2.67-3.141l-21.3,18.1a3.418,3.418,0,0,1-.13-.925V61.673l46.778,32.5-19.066,16.2a2.061,2.061,0,1,0,2.67,3.141l27.274-23.18a3.418,3.418,0,0,1,4.444,0l54.108,45.986Zm104.732-71.7V48.932l10.16,8.635Z" transform="translate(-22.684)" fill="#1f343e"/>
      </g>
    </g>
  </g>
</svg>
