<svg xmlns="http://www.w3.org/2000/svg" width="18.142" height="18.142" viewBox="0 0 18.142 18.142">
  <g id="Union_1" data-name="Union 1" transform="translate(-0.829 -0.829)" fill="#bdc1c3">
    <path d="M 16.97084999084473 18.47109985351562 C 16.57017135620117 18.47109985351562 16.19344139099121 18.31503105163574 15.91005039215088 18.03165054321289 L 10.25337028503418 12.37497043609619 L 9.899810791015625 12.02140045166016 L 9.546260833740234 12.37497997283936 L 3.889940500259399 18.03166007995605 C 3.606740474700928 18.31451988220215 3.22994065284729 18.47043037414551 2.829150676727295 18.47043037414551 C 2.428360462188721 18.47043037414551 2.051560640335083 18.31451988220215 1.768150568008423 18.03144073486328 C 1.183430552482605 17.44672012329102 1.183430552482605 16.49497985839844 1.768350601196289 15.91005039215088 L 7.424680709838867 10.25336074829102 L 7.778220653533936 9.899810791015625 L 7.424670696258545 9.546270370483398 L 1.767450571060181 3.889050483703613 C 1.183110594749451 3.304710388183594 1.183200597763062 2.353280544281006 1.767660617828369 1.768150448799133 C 2.050840616226196 1.484970450401306 2.427570581436157 1.328900456428528 2.828250646591187 1.328900456428528 C 3.228930473327637 1.328900456428528 3.605660676956177 1.484970450401306 3.889050483703613 1.768350481987 L 9.545920372009277 7.42486047744751 L 9.899480819702148 7.7784104347229 L 10.25302028656006 7.424840450286865 L 15.91006088256836 1.767440438270569 C 16.19326019287109 1.484580397605896 16.57006072998047 1.328680396080017 16.97084999084473 1.328680396080017 C 17.37164115905762 1.328680396080017 17.74843978881836 1.484580397605896 18.03185081481934 1.76766037940979 C 18.6165714263916 2.352380514144897 18.6165714263916 3.304120540618896 18.03165054321289 3.889050483703613 L 12.37469100952148 9.546370506286621 L 12.02114009857178 9.899930000305176 L 12.37471103668213 10.2534704208374 L 18.03166007995605 15.91006088256836 C 18.61581039428711 16.4948902130127 18.61581039428711 17.44680976867676 18.03144073486328 18.03185081481934 C 17.74826049804688 18.31503105163574 17.37153053283691 18.47109985351562 16.97084999084473 18.47109985351562 Z" stroke="none"/>
    <path d="M 16.97084999084473 17.97109985351562 C 17.23797035217285 17.97109985351562 17.4891414642334 17.86704063415527 17.67769050598145 17.67850112915039 C 18.06744003295898 17.28829956054688 18.06744003295898 16.65340042114258 17.67811965942383 16.26362991333008 L 11.314040184021 9.89995002746582 L 17.67809104919434 3.5354905128479 C 18.06807136535645 3.145520448684692 18.06807136535645 2.510980367660522 17.67850112915039 2.121410369873047 C 17.48951148986816 1.932640433311462 17.23820114135742 1.828680396080017 16.97084999084473 1.828680396080017 C 16.70350074768066 1.828680396080017 16.45219039916992 1.932640433311462 16.26362991333008 2.120980501174927 L 9.899500846862793 8.48551082611084 L 3.5354905128479 2.121910333633423 C 3.346540689468384 1.932960391044617 3.095370531082153 1.828900456428528 2.828250646591187 1.828900456428528 C 2.561130523681641 1.828900456428528 2.309960603713989 1.932960391044617 2.121410608291626 2.121500492095947 C 1.731690526008606 2.511680364608765 1.731500625610352 3.145990371704102 2.121010541915894 3.5354905128479 L 8.485310554504395 9.899800300598145 L 2.121910572052002 16.26361083984375 C 1.731930613517761 16.65357971191406 1.731930613517761 17.28812026977539 2.121500492095947 17.67769050598145 C 2.310500621795654 17.8664608001709 2.561810493469238 17.97043037414551 2.829150676727295 17.97043037414551 C 3.096490621566772 17.97043037414551 3.347800493240356 17.8664608001709 3.536370515823364 17.67811965942383 L 9.899800300598145 11.31428050994873 L 16.26361083984375 17.67809104919434 C 16.45256042480469 17.86704063415527 16.7037296295166 17.97109985351562 16.97084999084473 17.97109985351562 M 16.97084999084473 18.97109985351562 C 16.45897102355957 18.97109985351562 15.94710063934326 18.77580070495605 15.55650043487549 18.38520050048828 L 9.899820327758789 12.72852039337158 L 4.243500709533691 18.38520050048828 C 3.462300062179565 19.16550064086914 2.196000576019287 19.16550064086914 1.414800524711609 18.38520050048828 C 0.6336005926132202 17.60400009155273 0.6336005926132202 16.33769989013672 1.414800524711609 15.55650043487549 L 7.071120738983154 9.899820327758789 L 1.41390061378479 4.242600440979004 C 0.6336005926132202 3.462300539016724 0.6336005926132202 2.196000337600708 1.41390061378479 1.414800405502319 C 2.1951003074646 0.633600652217865 3.461400270462036 0.6336002945899963 4.242600440979004 1.414800405502319 L 9.899460792541504 7.071300506591797 L 15.55650043487549 1.4139004945755 C 16.33769989013672 0.6336003541946411 17.60400009155273 0.6336003541946411 18.38520050048828 1.4139004945755 C 19.16640090942383 2.195100545883179 19.16640090942383 3.461400508880615 18.38520050048828 4.242600440979004 L 12.72825050354004 9.899909973144531 L 18.38520050048828 15.55650043487549 C 19.16550064086914 16.33769989013672 19.16550064086914 17.60400009155273 18.38520050048828 18.38520050048828 C 17.99460029602051 18.77580070495605 17.48272132873535 18.97109985351562 16.97084999084473 18.97109985351562 Z" stroke="none" fill="#1f343e"/>
  </g>
</svg>
