<svg xmlns="http://www.w3.org/2000/svg" width="19" height="16" viewBox="0 0 19 16">
  <g id="Union_1" data-name="Union 1" transform="translate(33 22)" fill="#bdc1c3">
    <path d="M -16.00020027160645 -6.500300407409668 L -30.99960136413574 -6.500300407409668 C -31.82709121704102 -6.500300407409668 -32.50030136108398 -7.173110485076904 -32.50030136108398 -8.000100135803223 C -32.50030136108398 -8.827090263366699 -31.82709121704102 -9.499900817871094 -30.99960136413574 -9.499900817871094 L -16.00020027160645 -9.499900817871094 C -15.17321109771729 -9.499900817871094 -14.50040054321289 -8.827090263366699 -14.50040054321289 -8.000100135803223 C -14.50040054321289 -7.173110485076904 -15.17321109771729 -6.500300407409668 -16.00020027160645 -6.500300407409668 Z M -16.00020027160645 -12.49970054626465 L -30.99960136413574 -12.49970054626465 C -31.82709121704102 -12.49970054626465 -32.50030136108398 -13.17291069030762 -32.50030136108398 -14.00040054321289 C -32.50030136108398 -14.82739067077637 -31.82709121704102 -15.50020027160645 -30.99960136413574 -15.50020027160645 L -16.00020027160645 -15.50020027160645 C -15.17321109771729 -15.50020027160645 -14.50040054321289 -14.82739067077637 -14.50040054321289 -14.00040054321289 C -14.50040054321289 -13.17291069030762 -15.17321109771729 -12.49970054626465 -16.00020027160645 -12.49970054626465 Z M -16.00020027160645 -18.5 L -30.99960136413574 -18.5 C -31.82709121704102 -18.5 -32.50030136108398 -19.17280960083008 -32.50030136108398 -19.99979972839355 C -32.50030136108398 -20.82678985595703 -31.82709121704102 -21.49959945678711 -30.99960136413574 -21.49959945678711 L -16.00020027160645 -21.49959945678711 C -15.17321109771729 -21.49959945678711 -14.50040054321289 -20.82678985595703 -14.50040054321289 -19.99979972839355 C -14.50040054321289 -19.17280960083008 -15.17321109771729 -18.5 -16.00020027160645 -18.5 Z" stroke="none"/>
    <path d="M -16.00020027160645 -7.000300407409668 C -15.4489107131958 -7.000300407409668 -15.00040054321289 -7.448810577392578 -15.00040054321289 -8.000100135803223 C -15.00040054321289 -8.551390647888184 -15.4489107131958 -8.999900817871094 -16.00020027160645 -8.999900817871094 L -30.99960136413574 -8.999900817871094 C -31.5513916015625 -8.999900817871094 -32.00030136108398 -8.551390647888184 -32.00030136108398 -8.000100135803223 C -32.00030136108398 -7.448810577392578 -31.5513916015625 -7.000300407409668 -30.99960136413574 -7.000300407409668 L -16.00020027160645 -7.000300407409668 M -16.00020027160645 -12.99970054626465 C -15.4489107131958 -12.99970054626465 -15.00040054321289 -13.44861030578613 -15.00040054321289 -14.00040054321289 C -15.00040054321289 -14.55169010162354 -15.4489107131958 -15.00020027160645 -16.00020027160645 -15.00020027160645 L -30.99960136413574 -15.00020027160645 C -31.5513916015625 -15.00020027160645 -32.00030136108398 -14.55169010162354 -32.00030136108398 -14.00040054321289 C -32.00030136108398 -13.44861030578613 -31.5513916015625 -12.99970054626465 -30.99960136413574 -12.99970054626465 L -16.00020027160645 -12.99970054626465 M -16.00020027160645 -19 C -15.4489107131958 -19 -15.00040054321289 -19.44851112365723 -15.00040054321289 -19.99979972839355 C -15.00040054321289 -20.55109024047852 -15.4489107131958 -20.99959945678711 -16.00020027160645 -20.99959945678711 L -30.99960136413574 -20.99959945678711 C -31.5513916015625 -20.99959945678711 -32.00030136108398 -20.55109024047852 -32.00030136108398 -19.99979972839355 C -32.00030136108398 -19.44851112365723 -31.5513916015625 -19 -30.99960136413574 -19 L -16.00020027160645 -19 M -16.00020027160645 -6.000300407409668 L -30.99960136413574 -6.000300407409668 C -32.10480117797852 -6.000300407409668 -33.00030136108398 -6.895800590515137 -33.00030136108398 -8.000100135803223 C -33.00030136108398 -9.104400634765625 -32.10480117797852 -9.999900817871094 -30.99960136413574 -9.999900817871094 L -16.00020027160645 -9.999900817871094 C -14.89500141143799 -9.999900817871094 -14.00040054321289 -9.104400634765625 -14.00040054321289 -8.000100135803223 C -14.00040054321289 -6.895800590515137 -14.89500141143799 -6.000300407409668 -16.00020027160645 -6.000300407409668 Z M -16.00020027160645 -11.99970054626465 L -30.99960136413574 -11.99970054626465 C -32.10480117797852 -11.99970054626465 -33.00030136108398 -12.89520072937012 -33.00030136108398 -14.00040054321289 C -33.00030136108398 -15.10470008850098 -32.10480117797852 -16.00020027160645 -30.99960136413574 -16.00020027160645 L -16.00020027160645 -16.00020027160645 C -14.89500141143799 -16.00020027160645 -14.00040054321289 -15.10470008850098 -14.00040054321289 -14.00040054321289 C -14.00040054321289 -12.89520072937012 -14.89500141143799 -11.99970054626465 -16.00020027160645 -11.99970054626465 Z M -16.00020027160645 -18 L -30.99960136413574 -18 C -32.10480117797852 -18 -33.00030136108398 -18.89550018310547 -33.00030136108398 -19.99979972839355 C -33.00030136108398 -21.10499954223633 -32.10480117797852 -21.99959945678711 -30.99960136413574 -21.99959945678711 L -16.00020027160645 -21.99959945678711 C -14.89500141143799 -21.99959945678711 -14.00040054321289 -21.10499954223633 -14.00040054321289 -19.99979972839355 C -14.00040054321289 -18.89550018310547 -14.89500141143799 -18 -16.00020027160645 -18 Z" stroke="none" fill="#1f343e"/>
  </g>
</svg>
