<svg xmlns="http://www.w3.org/2000/svg" width="32" height="32" viewBox="0 0 32 32">
  <g id="Group_1" data-name="Group 1" transform="translate(-670 -351)">
    <g id="Ellipse_1" data-name="Ellipse 1" transform="translate(670 351)" fill="#8cd943" stroke="#1f343e" stroke-width="1">
      <circle cx="16" cy="16" r="16" stroke="none"/>
      <circle cx="16" cy="16" r="15.5" fill="none"/>
    </g>
    <g id="Union_2" data-name="Union 2" transform="translate(675.747 360.222)" fill="#fff">
      <path d="M 8.485650062561035 14.22760009765625 C 8.183759689331055 14.22760009765625 7.89309024810791 14.1386604309082 7.645080089569092 13.97039031982422 C 7.566699981689453 13.91721057891846 7.492609977722168 13.85589981079102 7.424849987030029 13.7881498336792 L 6.717230319976807 13.08141994476318 C 6.709630012512207 13.07381057739258 6.701770305633545 13.0657205581665 6.694000244140625 13.05757999420166 L 6.690060138702393 13.05347061157227 L 6.68602991104126 13.04944038391113 L 1.767420172691345 8.131620407104492 C 1.183290123939514 7.546810150146484 1.183290123939514 6.594890117645264 1.767660140991211 6.009850025177002 L 2.474630117416382 5.303780078887939 C 2.758240222930908 5.020170211791992 3.134970188140869 4.864099979400635 3.535650014877319 4.864099979400635 C 3.936330080032349 4.864099979400635 4.313060283660889 5.020170211791992 4.596450328826904 5.303550243377686 L 8.131649971008301 8.838749885559082 L 8.485199928283691 9.192310333251953 L 8.838749885559082 8.838749885559082 L 15.91005039215088 1.767450213432312 C 16.19326019287109 1.484580159187317 16.57006072998047 1.328680157661438 16.97084999084473 1.328680157661438 C 17.37163925170898 1.328680157661438 17.74843978881836 1.484580159187317 18.03185081481934 1.767660140991211 L 18.7379207611084 2.474630117416382 C 19.32307052612305 3.059780120849609 19.32307052612305 4.011520385742188 18.73814964294434 4.596450328826904 L 9.546449661254883 13.7881498336792 C 9.263060569763184 14.07153034210205 8.886329650878906 14.22760009765625 8.485650062561035 14.22760009765625 Z" stroke="none"/>
      <path d="M 8.485650062561035 13.72760009765625 C 8.75277042388916 13.72760009765625 9.003940582275391 13.62353992462158 9.192890167236328 13.43459033966064 L 18.38459014892578 4.242890357971191 C 18.77457046508789 3.852920055389404 18.77457046508789 3.218380212783813 18.38414001464844 2.827960252761841 L 17.67849922180176 2.121410131454468 C 17.48950958251953 1.932640194892883 17.23819923400879 1.828680157661438 16.97084999084473 1.828680157661438 C 16.70350074768066 1.828680157661438 16.45219039916992 1.932640194892883 16.26361083984375 2.121010065078735 L 8.485199928283691 9.899410247802734 L 4.242890357971191 5.657110214233398 C 4.053940296173096 5.468160152435303 3.802770137786865 5.364099979400635 3.535650014877319 5.364099979400635 C 3.268530130386353 5.364099979400635 3.017360210418701 5.468160152435303 2.827960014343262 5.657560348510742 L 2.121410131454468 6.363200187683105 C 1.731660127639771 6.753400325775146 1.731660127639771 7.388299942016602 2.120950222015381 7.778039932250977 L 7.055490016937256 12.71215057373047 C 7.060709953308105 12.71761035919189 7.065969944000244 12.72305011749268 7.070559978485107 12.72764015197754 L 7.778409957885742 13.43459033966064 C 7.823890209197998 13.48008060455322 7.873480319976807 13.52113056182861 7.925800323486328 13.55663013458252 C 8.09065055847168 13.66847991943359 8.284250259399414 13.72760009765625 8.485650062561035 13.72760009765625 M 8.485650062561035 14.72760009765625 L 8.485589981079102 14.72760009765625 C 8.093780517578125 14.72760009765625 7.70182991027832 14.61311054229736 7.364360332489014 14.38415050506592 C 7.261050224304199 14.31406021118164 7.162849903106689 14.23325061798096 7.071300029754639 14.14169979095459 L 6.363900184631348 13.43519973754883 C 6.353280067443848 13.42457008361816 6.342840194702148 13.4138298034668 6.332509994506836 13.40301990509033 L 1.413900136947632 8.485199928283691 C 0.633600115776062 7.703999996185303 0.633600115776062 6.437700271606445 1.413900136947632 5.656500339508057 L 2.121300220489502 4.950000286102295 C 2.902500152587891 4.168799877166748 4.168799877166748 4.168799877166748 4.950000286102295 4.950000286102295 L 8.485199928283691 8.485199928283691 L 15.55650043487549 1.413900136947632 C 16.33769989013672 0.6336002349853516 17.60400009155273 0.6336002349853516 18.38520050048828 1.413900136947632 L 19.09169960021973 2.121300220489502 C 19.87290000915527 2.902500152587891 19.87290000915527 4.168800354003906 19.09169960021973 4.950000286102295 L 9.90000057220459 14.14169979095459 C 9.509400367736816 14.53229999542236 8.997529983520508 14.72760009765625 8.485650062561035 14.72760009765625 Z" stroke="none" fill="#1f343e"/>
    </g>
  </g>
</svg>
